<svg width="512" height="512" viewBox="0 0 512 512" xmlns="http://www.w3.org/2000/svg">
  <defs>
    <linearGradient id="grad1" x1="0%" y1="0%" x2="0%" y2="100%">
      <stop offset="0%" style="stop-color:#1e3a8a;stop-opacity:1" />
      <stop offset="50%" style="stop-color:#312e81;stop-opacity:1" />
      <stop offset="100%" style="stop-color:#0f172a;stop-opacity:1" />
    </linearGradient>
  </defs>
  
  <rect x="0" y="0" width="512" height="512" rx="128" ry="128" fill="url(#grad1)" />
  
  <rect x="20" y="20" width="472" height="472" rx="108" ry="108" fill="none" stroke="rgba(255,255,255,0.15)" stroke-width="20" />

  <g transform="translate(106, 106) scale(12.5)" stroke="white" stroke-width="1.8" fill="none" stroke-linecap="round" stroke-linejoin="round">
     <path d="m2 7 4.41-4.41A2 2 0 0 1 7.83 2h8.34a2 2 0 0 1 1.42.59L22 7" />
     <path d="M4 12v8a2 2 0 0 0 2 2h12a2 2 0 0 0 2-2v-8" />
     <path d="M15 22v-4a2 2 0 0 0-2-2h-2a2 2 0 0 0-2 2v4" />
     <path d="M2 7h20" />
     <path d="M22 7v3a2 2 0 0 1-2 2v0a2.7 2.7 0 0 1-1.59-.63.7.7 0 0 0-.82 0A2.7 2.7 0 0 1 16 12a2.7 2.7 0 0 1-1.59-.63.7.7 0 0 0-.82 0A2.7 2.7 0 0 1 12 12a2.7 2.7 0 0 1-1.59-.63.7.7 0 0 0-.82 0A2.7 2.7 0 0 1 8 12a2.7 2.7 0 0 1-1.59-.63.7.7 0 0 0-.82 0A2.7 2.7 0 0 1 4 12v0a2 2 0 0 1-2-2V7" />
  </g>
</svg>