<?xml version="1.0" encoding="UTF-8"?>
<svg version="1.1" xmlns="http://www.w3.org/2000/svg" width="1000" height="1002">
<path d="M0 0 C330 0 660 0 1000 0 C1000 330.66 1000 661.32 1000 1002 C670 1002 340 1002 0 1002 C0 671.34 0 340.68 0 0 Z " fill="#2F6D48" transform="translate(0,0)"/>
<path d="M0 0 C1.41076037 -0.00115403 2.82152045 -0.00274344 4.2322799 -0.00472724 C8.08586552 -0.00888196 11.93942622 -0.00684737 15.7930119 -0.00374103 C19.95806877 -0.00147134 24.12312146 -0.00497437 28.28817749 -0.00772095 C36.43899422 -0.01216108 44.58980172 -0.01120992 52.74061881 -0.00830831 C59.36785273 -0.00604707 65.99508407 -0.00574488 72.62231827 -0.00683212 C73.56667224 -0.00698536 74.51102621 -0.00713859 75.48399696 -0.00729647 C77.40264685 -0.0076162 79.32129673 -0.00794042 81.23994662 -0.00826906 C99.22017643 -0.01111878 117.20040113 -0.00784494 135.1806301 -0.00246869 C150.59390285 0.00199743 166.00716806 0.00122401 181.42044067 -0.00338745 C199.33460588 -0.00874467 217.24876662 -0.01084261 235.16293252 -0.00777519 C237.07501292 -0.00745665 238.98709333 -0.00714228 240.89917374 -0.00683212 C241.83986103 -0.00667785 242.78054831 -0.00652357 243.74974128 -0.00636462 C250.36464464 -0.0055028 256.97954516 -0.00695516 263.59444809 -0.00931168 C271.66221761 -0.01212267 279.7299774 -0.01134408 287.79774581 -0.00603093 C291.91059854 -0.00341123 296.02343509 -0.00235939 300.13628769 -0.00568008 C303.90768981 -0.00867892 307.67906087 -0.00699099 311.45046021 -0.00170253 C313.44730744 -0.00007174 315.44415686 -0.00330387 317.44100177 -0.00675976 C338.42935295 0.03850922 355.03433392 4.24312632 373.89456177 13.12698364 C373.89456177 13.78698364 373.89456177 14.44698364 373.89456177 15.12698364 C374.72987427 15.27200317 374.72987427 15.27200317 375.58206177 15.41995239 C392.14590005 20.48423403 404.66855167 40.69070199 413.89456177 54.12698364 C414.44289673 54.92120728 414.99123169 55.71543091 415.55618286 56.53372192 C418.849939 61.30749184 422.11907123 66.09758588 425.37747192 70.89553833 C427.64412036 74.22948855 429.9235259 77.55458412 432.20706177 80.87698364 C432.6417981 81.50967163 433.07653442 82.14235962 433.52444458 82.79421997 C438.27139969 89.69155592 443.06444737 96.55681154 447.8508606 103.42678833 C452.58826829 110.23272045 457.28375492 117.06582876 461.95608521 123.91653442 C466.27499877 130.24075278 470.64186209 136.53084669 475.01956177 142.81448364 C487.3036517 160.45384561 487.3036517 160.45384561 492.44924927 168.0161438 C493.48447414 169.52806175 494.52699067 171.03499712 495.57424927 172.53860474 C515.61312483 201.3116736 528.94273897 232.65306568 522.60598755 268.38235474 C519.80226251 283.06990223 515.47728749 296.13754305 508.00784302 309.15432739 C506.90109713 311.11540344 505.88513318 313.10513241 504.89456177 315.12698364 C504.23456177 315.12698364 503.57456177 315.12698364 502.89456177 315.12698364 C502.23456177 317.10698364 501.57456177 319.08698364 500.89456177 321.12698364 C500.23456177 321.12698364 499.57456177 321.12698364 498.89456177 321.12698364 C498.65608521 321.67999146 498.41760864 322.23299927 498.17190552 322.80276489 C490.12764894 337.43986784 472.57012843 348.9486958 457.89456177 356.12698364 C457.89125162 357.40158982 457.88794147 358.676196 457.88453102 359.98942661 C457.80538988 390.29518019 457.71612355 420.60088534 457.61451016 450.90657127 C457.60199237 454.64255809 457.58955943 458.37854519 457.57717896 462.11453247 C457.57471296 462.85825151 457.57224697 463.60197054 457.56970625 464.36822652 C457.53006078 476.38582015 457.49727724 488.40342309 457.46706195 500.4210437 C457.43586836 512.76652942 457.39722563 525.1119759 457.35177171 537.45741743 C457.32399112 545.0656411 457.3019133 552.67383631 457.28729926 560.28209686 C457.27543891 566.13143787 457.25317822 571.98071144 457.22717857 577.83000755 C457.21815622 580.21834409 457.21242515 582.60669585 457.21034813 584.99504852 C457.1794381 615.15626285 457.1794381 615.15626285 452.76956177 629.62698364 C452.55928345 630.32638062 452.34900513 631.02577759 452.13235474 631.74636841 C443.94792198 657.40152846 425.01784536 677.21716454 401.89456177 690.12698364 C393.26105148 694.4153764 384.23431365 696.90375215 374.89456177 699.12698364 C374.14993933 699.30570849 373.40531689 699.48443334 372.63813013 699.66857409 C369.27251359 700.23091866 366.06330717 700.25510697 362.64981174 700.25841141 C361.56604609 700.26149036 361.56604609 700.26149036 360.46038619 700.26463151 C358.0325489 700.27029856 355.6047684 700.26884462 353.17692566 700.26742554 C351.42129766 700.27000936 349.66567025 700.27302256 347.91004366 700.27642894 C343.07989404 700.2845005 338.24975927 700.2862886 333.41960371 700.28702641 C328.21214548 700.28887674 323.00469498 700.29642408 317.79724121 700.30316162 C306.40646573 700.31674759 295.01569378 700.32277036 283.62491155 700.32717228 C276.51113959 700.32993482 269.39736899 700.33417225 262.28359795 700.33867645 C242.58493796 700.35087053 222.88627907 700.36116888 203.18761539 700.36455154 C201.92664286 700.36477111 200.66567033 700.36499068 199.36648652 700.3652169 C197.47050772 700.36554431 197.47050772 700.36554431 195.53622633 700.36587834 C192.97492603 700.36632181 190.41362574 700.36676837 187.85232544 700.36721802 C185.94658646 700.36755016 185.94658646 700.36755016 184.0023477 700.36788902 C163.42592014 700.37183516 142.84952803 700.38928297 122.27311415 700.41257754 C101.14391498 700.43630461 80.01473358 700.44875405 58.88552088 700.44991946 C47.02386605 700.45083557 35.1622574 700.45657161 23.30061531 700.47473907 C13.19756465 700.49015849 3.09457441 700.49524972 -7.00848579 700.48700097 C-12.16055339 700.48310072 -17.31249937 700.48399348 -22.46455193 700.49805832 C-27.18805201 700.51083489 -31.91133954 700.50956683 -36.63483948 700.49746761 C-38.33681415 700.49551708 -40.03880406 700.49855902 -41.74075734 700.50731197 C-69.22011553 700.63960158 -93.40915311 691.53781536 -113.10543823 672.12698364 C-114.11090698 671.22979614 -114.11090698 671.22979614 -115.13668823 670.31448364 C-132.01379085 654.77683362 -142.13948284 630.26579229 -143.22614717 607.6103723 C-143.43417189 600.186838 -143.41795225 592.76061015 -143.42428589 585.33474731 C-143.43359517 582.83039531 -143.44376532 580.32604637 -143.45472717 577.82170105 C-143.47630958 572.45204223 -143.49196646 567.08241744 -143.50209427 561.7127285 C-143.5167474 553.94929308 -143.54230229 546.18592284 -143.57042556 538.42252592 C-143.61577377 525.82362227 -143.65243775 513.22470917 -143.68356323 500.62576294 C-143.71379802 488.39495182 -143.74817074 476.16416375 -143.78805542 463.93338013 C-143.79051697 463.17809866 -143.79297852 462.42281718 -143.79551466 461.6446484 C-143.80789022 457.85521232 -143.82034656 454.06577652 -143.83284307 450.27634084 C-143.9362314 418.8932531 -144.02534752 387.51013991 -144.10543823 356.12698364 C-145.17922729 355.54182983 -146.25301636 354.95667603 -147.35934448 354.35379028 C-148.79572965 353.56107935 -150.23191704 352.76800997 -151.66793823 351.97463989 C-152.72464722 351.40066467 -152.72464722 351.40066467 -153.80270386 350.81509399 C-161.04799555 346.79387364 -167.04566258 341.73478708 -173.10543823 336.12698364 C-174.22692261 335.10991333 -174.22692261 335.10991333 -175.37106323 334.07229614 C-197.66834488 312.91621395 -208.5324852 283.20670282 -210.03903198 253.12405396 C-210.45224407 234.47482034 -206.7226582 215.96591544 -198.35543823 199.31448364 C-198.04606323 198.67962036 -197.73668823 198.04475708 -197.41793823 197.39065552 C-192.41948348 187.38382844 -185.89545135 178.25968705 -179.48043823 169.12698364 C-178.06056321 167.09615593 -176.64130047 165.06490002 -175.22262573 163.03323364 C-174.52492065 162.03421021 -173.82721558 161.03518677 -173.10836792 160.00588989 C-170.24928558 155.89639465 -167.42456464 151.76394751 -164.60543823 147.62698364 C-159.1365345 139.60706241 -153.59791654 131.63706638 -148.04684448 123.67385864 C-143.87049134 117.67786604 -139.72242997 111.66386929 -135.60543823 105.62698364 C-130.14068173 97.61382449 -124.60767139 89.64958227 -119.06002808 81.69363403 C-114.74963913 75.50660962 -110.47723963 69.29528014 -106.23043823 63.06448364 C-104.6715075 60.78570067 -103.11096704 58.5080397 -101.54879761 56.23147583 C-100.61598927 54.87139331 -99.68487935 53.51014367 -98.75582886 52.14749146 C-81.07519653 26.29525069 -58.74143175 7.86497225 -27.51168823 1.63479614 C-18.31998767 0.26447381 -9.28819645 -0.01601943 0 0 Z " fill="#FEFEFE" transform="translate(347.1054382324219,142.87301635742188)"/>
<path d="M0 0 C1.4193161 -0.0031825 2.83862915 -0.00811594 4.25793386 -0.01463282 C8.1304567 -0.02737707 12.00255695 -0.0153889 15.87505174 0.00089574 C20.06182004 0.01411476 24.24854358 0.00413883 28.43531799 -0.00286865 C36.62515182 -0.01292641 44.81482349 -0.0017033 53.00463715 0.01683195 C62.54539051 0.03764542 72.08610924 0.03745839 81.62688103 0.03648679 C98.64909498 0.03548663 115.67123363 0.05378106 132.69342041 0.08285522 C149.20678071 0.11104564 165.72007478 0.12519591 182.23345947 0.12387085 C183.25115118 0.12379094 184.26884288 0.12371102 185.31737372 0.12362869 C186.33331714 0.12354798 187.34926055 0.12346727 188.39599013 0.12338412 C207.20688389 0.12200427 226.01774954 0.13378315 244.82863419 0.15169055 C251.47795827 0.15772055 258.12727719 0.15984933 264.7766037 0.16075516 C272.87744886 0.16211981 280.97824662 0.17105483 289.07907167 0.18942077 C293.2115756 0.19864969 297.34401896 0.20475033 301.47653389 0.20223236 C305.26001324 0.20003883 309.04335871 0.20709999 312.82681015 0.22152941 C314.84221122 0.22686259 316.85763082 0.22244231 318.87303329 0.21766531 C326.57928492 0.25901183 332.79953034 0.83153716 339.76519775 4.30697632 C340.6797876 4.74976929 340.6797876 4.74976929 341.612854 5.20150757 C347.61757123 8.91657561 351.35464014 13.35507415 355.26519775 19.11947632 C355.77985596 19.86310425 356.29451416 20.60673218 356.82476807 21.37289429 C358.45989318 23.74061474 360.08229887 26.11665893 361.70269775 28.49447632 C362.73753481 30.00511169 363.77268788 31.51553064 364.8081665 33.02572632 C366.39421877 35.34124865 367.97878638 37.65773938 369.55987549 39.97665405 C374.61889995 47.39421204 379.7476468 54.76239066 384.88116455 62.12850952 C389.27470488 68.43506498 393.64887618 74.75421557 397.99029541 81.09677124 C400.90696139 85.35399795 403.8601221 89.58481218 406.82208252 93.81063843 C423.73218729 117.94315586 423.73218729 117.94315586 430.99176025 128.95932007 C432.79112592 131.62550344 434.6702154 134.2171732 436.57769775 136.80697632 C439.80089201 141.20224121 442.90906181 145.66143035 445.95269775 150.18197632 C446.57120605 151.09040283 446.57120605 151.09040283 447.20220947 152.0171814 C456.34475282 165.70132487 460.03320142 179.71832229 457.04644775 196.09213257 C453.35779282 209.43170797 445.58203974 220.15541391 433.675354 227.31478882 C424.8685744 231.91252748 416.88056542 233.90247348 407.01519775 233.93197632 C405.70833008 233.93668945 405.70833008 233.93668945 404.37506104 233.9414978 C396.6489701 233.79958419 390.62207908 232.02359221 383.70269775 228.49447632 C383.04269775 228.16447632 382.38269775 227.83447632 381.70269775 227.49447632 C381.70269775 226.83447632 381.70269775 226.17447632 381.70269775 225.49447632 C380.83644775 225.33978882 380.83644775 225.33978882 379.95269775 225.18197632 C377.34608618 224.38551167 375.72916665 223.30382355 373.70269775 221.49447632 C373.70269775 220.83447632 373.70269775 220.17447632 373.70269775 219.49447632 C372.98082275 219.24697632 372.25894775 218.99947632 371.51519775 218.74447632 C368.42663194 217.3717804 366.19258358 215.77094336 363.70269775 213.49447632 C363.70269775 212.83447632 363.70269775 212.17447632 363.70269775 211.49447632 C362.61988525 211.33978882 362.61988525 211.33978882 361.51519775 211.18197632 C358.70269775 210.49447632 358.70269775 210.49447632 356.39019775 209.08041382 C353.59589293 207.43144905 350.97277119 206.42987362 347.89019775 205.43197632 C346.91437744 205.11099976 345.93855713 204.79002319 344.9331665 204.45932007 C338.37198517 202.49969275 332.45624109 201.12649771 325.57769775 201.18197632 C324.84269043 201.18689087 324.10768311 201.19180542 323.35040283 201.1968689 C305.61264175 201.57035593 290.58107502 208.02480923 277.20269775 219.43197632 C274.70269775 221.49447632 274.70269775 221.49447632 272.70269775 221.49447632 C272.70269775 222.15447632 272.70269775 222.81447632 272.70269775 223.49447632 C263.09569692 231.08465756 251.88725651 233.82252048 239.89019775 233.93197632 C239.1020166 233.94212769 238.31383545 233.95227905 237.50177002 233.96273804 C231.94753859 233.87969067 227.81211448 232.66310335 222.70269775 230.49447632 C220.70629136 229.81712415 218.70765361 229.14608697 216.70269775 228.49447632 C216.70269775 227.83447632 216.70269775 227.17447632 216.70269775 226.49447632 C216.02980713 226.29209351 215.3569165 226.08971069 214.66363525 225.88119507 C210.62558161 223.99002219 207.67692954 221.2137953 204.32769775 218.30697632 C188.36422873 204.94434882 170.42384374 199.88402456 149.70269775 201.49447632 C133.22919816 203.65630892 120.8033183 210.43752821 108.32769775 221.05697632 C95.87880933 231.3752912 82.71993318 234.65687253 66.91656494 233.7371521 C53.9250939 232.31307598 43.64091051 223.47611879 34.08551025 215.34994507 C31.76436432 213.32983465 31.76436432 213.32983465 28.70269775 212.49447632 C28.70269775 211.83447632 28.70269775 211.17447632 28.70269775 210.49447632 C26.39269775 209.83447632 24.08269775 209.17447632 21.70269775 208.49447632 C21.70269775 207.83447632 21.70269775 207.17447632 21.70269775 206.49447632 C21.00144775 206.37072632 20.30019775 206.24697632 19.57769775 206.11947632 C16.70269775 205.49447632 16.70269775 205.49447632 14.01519775 204.55697632 C-3.69360353 198.87679477 -23.00160383 200.06026004 -39.67230225 208.30697632 C-45.30026588 211.21771776 -50.45743508 214.38264002 -55.29730225 218.49447632 C-70.1722078 231.01418849 -83.112032 234.7323758 -102.29730225 233.49447632 C-113.98502687 231.97522254 -125.05241578 223.50374246 -132.29730225 214.49447632 C-140.91088666 202.11244873 -143.41800415 190.34377659 -142.29730225 175.49447632 C-141.70873657 172.22793682 -140.70963125 169.48967972 -139.29730225 166.49447632 C-138.88351318 165.56377319 -138.46972412 164.63307007 -138.043396 163.67416382 C-135.15136254 157.51184729 -131.76121356 152.11725861 -127.668396 146.69369507 C-124.76896584 142.78161385 -122.03316423 138.77189366 -119.29730225 134.74447632 C-114.34031456 127.46406028 -109.33541509 120.2189855 -104.29730225 112.99447632 C-99.43228835 106.01574556 -94.59042029 99.02278906 -89.79730225 91.99447632 C-84.32808038 83.97476944 -78.78978322 76.00456288 -73.2387085 68.04135132 C-68.53924995 61.29433597 -63.88271111 54.5195803 -59.25067139 47.72616577 C-54.10800357 40.19437828 -48.89619424 32.71110527 -43.6762085 25.23275757 C-42.71327881 23.85217163 -42.71327881 23.85217163 -41.730896 22.44369507 C-41.12737305 21.57970093 -40.5238501 20.71570679 -39.90203857 19.82553101 C-38.59150399 17.92183647 -37.32931268 16.00086966 -36.08636475 14.05307007 C-34.31699358 11.5226375 -32.65131265 9.77558359 -30.23480225 7.86947632 C-29.56320068 7.32033569 -28.89159912 6.77119507 -28.199646 6.20541382 C-19.05743543 0.81606223 -10.45591232 -0.08288104 0 0 Z " fill="#306E49" transform="translate(346.29730224609375,209.50552368164063)"/>
<path d="M0 0 C3.99049842 1.64314641 6.38021947 4.05422807 9.50390625 6.98828125 C17.34558031 13.77983302 26.76193048 19.07176757 36.1875 23.3125 C37.27160156 23.80878906 38.35570312 24.30507813 39.47265625 24.81640625 C43.28982468 26.43807577 47.14993201 27.45828694 51.1875 28.375 C51.92734131 28.54418945 52.66718262 28.71337891 53.42944336 28.88769531 C85.19725982 35.9328814 117.3135735 32.29826315 145.27392578 15.0234375 C150.93932413 11.29028229 156.26558501 7.2358507 161.25 2.625 C164.1875 0.3125 164.1875 0.3125 166.55078125 0.41015625 C169.82209481 1.52967245 171.72001892 3.1545689 174.3125 5.4375 C199.11456249 26.36527503 229.08089941 34.27603497 261.1015625 32.0390625 C285.79181735 29.45802994 310.65677819 19.59471935 328.2578125 1.7109375 C330.1875 0.3125 330.1875 0.3125 332.66015625 -0.140625 C336.00420558 0.45892635 337.13973851 1.7643541 339.5 4.1875 C353.30744047 17.19717724 370.58293041 24.72146596 388.7109375 29.515625 C389.72244873 29.78713379 390.73395996 30.05864258 391.77612305 30.33837891 C394.24550403 31.00057558 396.71593354 31.65851698 399.1875 32.3125 C399.30164165 63.09900859 399.39008887 93.88546864 399.44282665 124.67213839 C399.44907994 128.30942073 399.45555158 131.94670266 399.4621582 135.58398438 C399.46346976 136.30808066 399.46478131 137.03217695 399.4661326 137.77821554 C399.48787021 149.49210443 399.5272826 161.20587023 399.57326398 172.91968618 C399.62007454 184.94531876 399.64780509 196.97088701 399.65794247 208.99660695 C399.66417858 215.74871758 399.67913705 222.50057188 399.71615028 229.25259018 C399.7501373 235.61045461 399.76054719 241.96792577 399.75303841 248.32587242 C399.75441171 250.65667675 399.76432755 252.98749449 399.78352737 255.31822014 C399.80850694 258.50753749 399.80238636 261.69538168 399.78877258 264.88473511 C399.80333679 265.80110713 399.817901 266.71747915 399.83290654 267.66162002 C399.73081156 276.54664745 395.97663759 284.19458818 389.98046875 290.71484375 C379.14483694 300.37012351 367.65423868 300.6038116 353.875 300.5078125 C352.29459818 300.50407696 350.71419403 300.50123255 349.13378906 300.49923706 C344.99755326 300.49164315 340.8614605 300.47203168 336.72528076 300.4498291 C332.49525893 300.42927872 328.26521373 300.42021578 324.03515625 300.41015625 C315.75253892 300.3887813 307.47003731 300.35469731 299.1875 300.3125 C299.18511165 299.58142406 299.18272329 298.85034813 299.18026257 298.09711838 C299.12099814 280.26746461 299.0453753 262.43794792 298.95178509 244.6084404 C298.90691468 235.98604305 298.86748006 227.3636862 298.84106445 218.74121094 C298.81801321 211.22149924 298.78453628 203.70191664 298.73879844 196.18230748 C298.71496183 192.20467704 298.69617068 188.22717369 298.68988609 184.24947357 C298.68379159 180.49670053 298.6636367 176.74425228 298.63322449 172.99160004 C298.62039619 170.97576185 298.62200219 168.95984751 298.6242218 166.94396973 C298.44652978 149.53871541 292.80411487 134.36810996 281.1875 121.3125 C280.65640625 120.70019531 280.1253125 120.08789062 279.578125 119.45703125 C269.61820836 108.71454974 255.68293779 102.46682563 241.1875 101.3125 C236.30830027 101.15534943 231.42962285 101.1446547 226.54833984 101.13549805 C225.07235559 101.12922299 223.59637288 101.12257529 222.12039185 101.11558533 C217.29641799 101.09466684 212.47244427 101.08419456 207.6484375 101.07421875 C205.97961029 101.07016665 204.31078323 101.0660496 202.64195633 101.06186867 C194.79843845 101.04284398 186.95492981 101.02860717 179.11139333 101.0202567 C170.09308189 101.01049367 161.07501649 100.98418715 152.05679166 100.94375581 C145.0619876 100.91348464 138.06725366 100.89877746 131.07238543 100.89547569 C126.90580507 100.89313785 122.73948837 100.8843439 118.57297897 100.85901451 C114.6477522 100.83553482 110.72295902 100.83157924 106.7976799 100.84177589 C105.3683629 100.84226656 103.93902307 100.83608691 102.50977325 100.82221985 C84.26521304 100.65530755 67.97110495 106.2351827 54.1875 118.3125 C53.57261719 118.84488281 52.95773437 119.37726563 52.32421875 119.92578125 C41.57597393 129.91140116 35.37213352 143.80309972 34.1875 158.3125 C34.02474946 162.95992913 34.00277964 167.60588379 33.98217773 172.25585938 C33.97258387 173.65603922 33.96257294 175.05621625 33.95217896 176.45639038 C33.92528704 180.23676976 33.90419305 184.01716143 33.88417697 187.79758263 C33.86221976 191.75606871 33.83487897 195.71451762 33.80812073 199.67297363 C33.75832485 207.15962229 33.71333774 214.64629174 33.67009836 222.13298082 C33.62061356 230.66023542 33.56573734 239.1874527 33.51041877 247.71467113 C33.39680007 265.2472462 33.28991771 282.779856 33.1875 300.3125 C24.83533525 300.39225965 16.48333468 300.46912105 8.13085938 300.5078125 C3.01341961 300.53163139 -2.10373117 300.55966631 -7.22094727 300.61425781 C-11.35124546 300.65803989 -15.48123331 300.6817046 -19.61174583 300.69200897 C-21.17966782 300.69934278 -22.74757476 300.71366247 -24.31536293 300.73542023 C-37.34010204 300.90882362 -47.47145515 299.16400504 -57.6484375 290.45703125 C-64.63063787 283.53784713 -67.02563852 275.75069173 -67.07066262 266.10121018 C-67.06483693 265.18388153 -67.05901125 264.26655288 -67.05300903 263.32142639 C-67.05471788 262.3313093 -67.05642673 261.34119221 -67.05818737 260.32107157 C-67.0614746 257.01223192 -67.05049107 253.70359627 -67.03955078 250.39477539 C-67.0389865 248.01938888 -67.03930355 245.64400203 -67.04043579 243.26861572 C-67.0409501 237.49364724 -67.03228737 231.71874528 -67.01956047 225.94379199 C-67.00524313 219.22187464 -67.00226838 212.49996664 -66.99998413 205.77803617 C-66.99561101 193.79138183 -66.9823123 181.80475477 -66.96337891 169.81811523 C-66.9450102 158.17684058 -66.93085854 146.53557334 -66.92236328 134.89428711 C-66.92183783 134.17626024 -66.92131239 133.45823337 -66.92077102 132.71844811 C-66.91816087 129.11618143 -66.91563347 125.51391469 -66.91314721 121.91164792 C-66.89242663 92.04524617 -66.85706245 62.17887628 -66.8125 32.3125 C-63.14369647 31.26315535 -59.47519166 30.21471996 -55.796875 29.19921875 C-47.44820601 26.85494378 -39.55725225 24.28097889 -31.8125 20.3125 C-30.75417969 19.78785156 -29.69585937 19.26320313 -28.60546875 18.72265625 C-20.60971282 14.61773382 -13.59739916 9.86084234 -7.07421875 3.66015625 C-4.71112144 1.45582 -3.25337752 0.36148639 0 0 Z " fill="#2F6D47" transform="translate(337.8125,476.6875)"/>
<path d="M0 0 C44.22 0 88.44 0 134 0 C134 44.22 134 88.44 134 134 C89.78 134 45.56 134 0 134 C0 89.78 0 45.56 0 0 Z " fill="#306D47" transform="translate(437,643)"/>
</svg>
